<svg viewBox="0 0 24 24" fill="none" xmlns="http://www.w3.org/2000/svg" xmlns:xlink="http://www.w3.org/1999/xlink" x="0" y="0"><g id="Plus 4">
<path id="Vector_21" d="M6,19c-0.55,0 -1,-0.4477 -1,-1v-12c0,-0.5523 0.45,-1 1,-1h12c0.55,0 1,0.4477 1,1v1.25c0,0.5523 0.45,1 1,1c0.55,0 1,-0.4477 1,-1v-1.25c0,-1.6569 -1.34,-3 -3,-3h-12c-1.66,0 -3,1.3431 -3,3v12c0,1.6569 1.34,3 3,3h3.71c0.56,0 1,-0.4477 1,-1c0,-0.5523 -0.44,-1 -1,-1z" fill="currentColor"/>
<path id="Vector_22" d="M17,8c0,0.5523 -0.45,1 -1,1h-8c-0.55,0 -1,-0.4477 -1,-1c0,-0.5523 0.45,-1 1,-1h8c0.55,0 1,0.4477 1,1zM11,13c0.55,0 1,-0.4477 1,-1c0,-0.5523 -0.45,-1 -1,-1h-3c-0.55,0 -1,0.4477 -1,1c0,0.5523 0.45,1 1,1z" fill="currentColor"/>
<path id="Vector_23" d="M21.28,8.9746c0.53,0.0046 1.03,0.2162 1.41,0.5889c0.37,0.3726 0.58,0.8773 0.59,1.4043c0,0.5267 -0.2,1.0341 -0.57,1.4131l-7.11,7.1171c-0.07,0.0677 -0.15,0.1201 -0.24,0.1543l-0.09,0.0284l-2.45,0.5791c-0.06,0.0124 -0.11,0.018 -0.16,0.0166c-0.11,-0.0018 -0.21,-0.0257 -0.3,-0.0713c-0.09,-0.0457 -0.17,-0.1117 -0.24,-0.1924c-0.06,-0.0808 -0.1,-0.1751 -0.13,-0.2754c-0.02,-0.1002 -0.02,-0.2044 0,-0.3047v0l0.58,-2.4531c0.03,-0.1235 0.1,-0.2364 0.18,-0.3262l7.12,-7.1142l0.15,-0.1299c0.35,-0.2839 0.8,-0.4385 1.26,-0.4346zM21.27,10.373c-0.15,-0.0086 -0.31,0.0394 -0.43,0.1368l-3.49,3.4912l-3.49,3.4844l-0.32,1.5908l1.22,-0.6875l6.98,-6.9785c0.1,-0.1228 0.15,-0.2771 0.14,-0.4336c-0.01,-0.1573 -0.08,-0.3057 -0.19,-0.417c-0.11,-0.1114 -0.26,-0.1777 -0.42,-0.1866z" fill="currentColor" stroke="currentColor" stroke-width="0.05"/>
</g></svg>