<svg viewBox="0 0 20 20" fill="none" xmlns="http://www.w3.org/2000/svg" xmlns:xlink="http://www.w3.org/1999/xlink" x="0" y="0"><g id="Stroke Icons">
<path id="stroke" d="M17.5,13.75c0,3.75 -0.4167,3.75 -7.5,3.75c-7.0833,0 -7.5,0 -7.5,-3.75c0,-1.784 0,-4.167 0,-5.833c0,-1.584 0.7521,-1.663 6.5431,-4.882c0.5947,-0.331 1.325,-0.34 1.9269,-0.023c6.1522,3.242 6.53,3.318 6.53,4.905c0,3.133 0,3.215 0,5.833z" stroke="white" stroke-width="1.5" stroke-linecap="round" stroke-linejoin="round"/>
<path id="stroke_2" d="M7.5,17.083v-2.333c0,-0.552 0.4477,-1 1,-1h3c0.5523,0 1,0.448 1,1v2.333" stroke="white" stroke-width="1.5" stroke-linecap="round"/>
</g></svg>