<svg viewBox="0 0 232 44" fill="none" xmlns="http://www.w3.org/2000/svg" xmlns:xlink="http://www.w3.org/1999/xlink" x="0" y="0"><defs><clipPath id="clip1_1_3517">
<rect width="101" height="44" fill="white" transform="translate(0, 0)"/>
</clipPath></defs><g id="Frame 2147224842">
<g id="image (1) 1" clip-path="url(#clip1_1_3517)">
<path id="Vector_3" d="M39.0867,7.7944c8.0609,-0.2855 14.8252,6.0809 15.1098,14.2207c0.2843,8.1394 -6.0187,14.9712 -14.0799,15.2605c-8.0636,0.2894 -14.8325,-6.0781 -15.1171,-14.2206c-0.2843,-8.1425 6.0229,-14.9755 14.0872,-15.2606z" fill="white"/>
<path id="Vector_4" d="M38.931,15.6302c3.7831,-0.3651 7.14,2.4432 7.4889,6.2644c0.3489,3.8215 -2.4426,7.2018 -6.2284,7.5418c-3.7678,0.3384 -7.0972,-2.4649 -7.4445,-6.2687c-0.3474,-3.8037 2.4181,-7.1744 6.184,-7.5375z" fill="#3D3936"/>
<path id="Vector_5" d="M81.532,8.0366h19.202v7.0883h-10.875v3.8551h9.322v6.6449h-9.322v2.6576v1.6448h11.466v7.0868h-19.801z" fill="white"/>
<path id="Vector_6" d="M56.2326,8.0366l6.8214,-0.0046c3.16,-0.0004 5.771,-0.1932 8.947,0.6682c5.739,1.5571 8.17,7.0045 6.647,12.6111c-0.686,2.5301 -2.352,4.1008 -4.629,5.3268l5.575,10.376h-8.663c-1.293,-2.933 -2.846,-6.0878 -4.214,-9.0108h-2.336v9.0108h-8.1542v-10.6498c2.2131,-2.2865 4.7082,-4.9279 7.3122,-6.7496c2.221,-1.5536 6.985,-2.4985 8.671,0.3202c0.041,-1.4632 -0.071,-2.7279 -1.491,-3.5379c-0.428,-0.2438 -0.858,-0.3481 -1.289,-0.5857c0.006,-0.105 0.009,-0.2101 0.01,-0.3155c0.001,-0.3454 -0.074,-0.8734 -0.352,-1.0658c-2.458,-1.7047 -10.0735,-1.8295 -12.8612,-1.7294z" fill="white"/>
<path id="Vector_7" d="M14.5189,8.0366c3.1312,-0.0356 5.4495,0.4183 8.2548,1.8155v7.351c-2.909,-1.5443 -7.2047,-2.4923 -10.3493,-1.1546c-1.6698,0.6973 -2.9854,2.0523 -3.6422,3.752c-0.7233,1.9009 -0.6729,4.0135 0.1399,5.8769c0.7037,1.6228 2.0352,2.8833 3.684,3.4882c3.1293,1.1588 7.4339,0.0494 10.3585,-1.3126v5.374v2.0454c-2.1393,1.0796 -4.5061,1.4984 -6.8711,1.6853c-4.0823,0.3222 -8.01,-0.7192 -11.122,-3.5059c-2.8342,-2.5723 -4.5305,-6.1833 -4.7102,-10.0268c-0.4315,-7.6809 4.7701,-14.2083 12.3789,-15.2293c0.6373,-0.0857 1.2379,-0.124 1.8787,-0.1591z" fill="white"/>
<path id="Vector_8" d="M87.931,44.0492c1.472,-0.3187 2.923,0.6226 3.247,2.1071c0.324,1.4845 -0.6,2.9547 -2.068,3.2904c-1.481,0.3384 -2.951,-0.6041 -3.278,-2.1006c-0.326,-1.4965 0.615,-2.9756 2.099,-3.2969z" fill="white"/>
<path id="Vector_9" d="M55.9467,44.0495c1.4786,-0.3206 2.9346,0.6312 3.2505,2.1246c0.316,1.4934 -0.6277,2.9624 -2.1071,3.2803c-1.477,0.3172 -2.9296,-0.6342 -3.2452,-2.1257c-0.3156,-1.4914 0.6251,-2.9589 2.1018,-3.2792z" fill="white"/>
<path id="Vector_10" d="M46.928,44.0773c1.0715,-0.0123 2.4881,-0.1448 3.3611,0.5459c1.308,1.0348 1.2376,2.7681 0.3015,4.0127c-1.2131,0.9815 -2.1615,0.7996 -3.6626,0.7849z" fill="white"/>
<path id="Vector_11" d="M20.7929,44.0774c0.9996,-0.0159 2.886,-0.2221 3.3833,0.7768c0.5409,1.087 0.0608,1.8592 -0.8539,2.3861c0.2506,0.4693 1.018,1.7 1.0414,2.1408c-0.2571,0.071 -0.5134,0.0942 -0.7231,-0.0757l-1.0352,-1.972h-1.0811c0.0046,0.4009 0.0578,1.7224 -0.0814,2.0535c-0.3034,0.0177 -0.295,0.0181 -0.59,-0.0576c-0.127,-0.467 -0.0623,-4.5273 -0.06,-5.2519z" fill="white"/>
<path id="Vector_12" d="M69.837,44.0773c0.999,-0.0158 2.889,-0.2167 3.385,0.7757c0.54,1.0789 0.045,1.8677 -0.859,2.3868c0.249,0.4698 1.019,1.7005 1.044,2.1412c-0.261,0.0722 -0.513,0.0935 -0.727,-0.0769l-1.035,-1.9708h-1.087c0.006,0.4732 0.009,0.9464 0.008,1.4196c-0.004,0.2777 0,0.4848 -0.184,0.6675c-0.291,-0.0069 -0.301,0.0433 -0.499,-0.0973c-0.131,-0.9912 -0.05,-4.0873 -0.046,-5.2458z" fill="white"/>
<path id="Vector_13" d="M60.514,44.0775c0.966,-0.0062 2.286,-0.1743 3.016,0.4929c0.295,0.2665 0.465,0.6478 0.466,1.0479c0.004,1.4185 -1.145,1.7433 -2.294,1.7229h-0.327c-0.409,0.3395 0.16,1.5007 -0.264,2.0311c-0.213,0.0919 -0.262,0.0564 -0.492,0.0143c-0.033,-0.0387 -0.065,-0.0773 -0.098,-0.1159c-0.013,-1.094 -0.007,-4.2824 -0.007,-5.1932z" fill="white"/>
<path id="Vector_14" d="M65.196,44.0772c0.764,0.0081 2.592,-0.1032 3.208,0.0815c0.063,0.2449 0.07,0.1294 -0.007,0.3596c-0.417,0.3117 -1.85,0.1827 -2.48,0.1738v1.7124c0.442,-0.0015 1.868,-0.0761 2.11,0.1074c0.077,0.2978 0.081,0.1557 -0.006,0.4423c-0.344,0.1796 -1.494,-0.0533 -2.049,0.1124l-0.055,0.163v1.5765c0.709,0.0108 1.92,-0.1426 2.501,0.1131c0.177,0.2144 0.132,0.0939 0.135,0.3763c-0.293,0.2263 -2.819,0.1294 -3.358,0.1251z" fill="white"/>
<path id="Vector_15" d="M5.9268,44.0772c0.6249,0.0027 2.7576,-0.0904 3.2186,0.0873c0.0413,0.2673 0.0655,0.1498 -0.0401,0.3696c-0.4255,0.2859 -1.8495,0.1661 -2.473,0.158v1.7124l1.5645,-0.0073c0.3816,0.0008 0.3723,-0.0402 0.5713,0.1626c0.0402,0.2835 0.0604,0.1541 -0.0423,0.4045c-0.3502,0.1579 -1.4605,-0.0564 -2.0326,0.1008l-0.0609,0.1661v1.5749c0.7375,0.0116 1.9101,-0.143 2.5186,0.1074c0.1767,0.2194 0.1337,0.0954 0.1196,0.3889c-0.3316,0.2245 -2.7621,0.1225 -3.3437,0.1182z" fill="white"/>
<path id="Vector_16" d="M42.2822,44.0771c0.6607,0.0039 2.72,-0.1004 3.2123,0.0915c0.0467,0.243 0.0578,0.1264 -0.0459,0.3608c-0.4261,0.2967 -1.8316,0.1712 -2.4621,0.1627v1.7124c0.4641,-0.0062 2.2307,-0.2156 2.2227,0.3893c-0.4878,0.5482 -1.3256,0.0136 -2.1653,0.2712l-0.0574,0.17v1.571c0.6052,0.005 2.2605,-0.1901 2.6523,0.2325l-0.0092,0.2561c-0.3829,0.2384 -2.7242,0.1306 -3.3474,0.126z" fill="white"/>
<path id="Vector_17" d="M2.5517,44.0186c0.5721,-0.0467 2.4219,-0.1251 2.0699,0.9136c-0.3852,0.0355 -1.1284,-0.3075 -1.734,-0.2801c-0.5221,0.0282 -1.0099,0.2716 -1.3493,0.6733c-0.7588,0.8989 -0.6651,2.4193 0.3095,3.1305c0.6199,0.4523 1.2321,0.4098 1.9449,0.3245c0.3077,-0.1074 0.4633,-0.1882 0.7823,-0.1855c0.1905,0.114 0.1253,0.0561 0.2407,0.2627c-0.7888,1.2755 -3.7354,0.7231 -4.3551,-1.1592c-0.2583,-0.7711 -0.1851,-1.6158 0.2018,-2.3297c0.452,-0.8185 1.046,-1.1222 1.8893,-1.3501z" fill="white"/>
<path id="Vector_18" d="M99.128,44.0265c0.471,-0.0359 1.585,-0.0761 1.914,0.2994c0.001,0.3341 0.054,0.1986 -0.108,0.4384c-0.557,0.1561 -1.863,-0.5466 -2.236,0.3747c-0.498,1.2319 2.349,1.3057 2.578,2.5476c0.219,1.189 -0.375,1.5389 -1.277,1.8024c-0.203,0.0077 -0.408,0.0116 -0.612,0.0108c-0.478,-0.0042 -1.009,-0.0243 -1.352,-0.3724c-0.1,-0.3198 -0.085,-0.1564 -0.011,-0.5106c0.476,-0.1391 1.392,0.5272 2.063,0.1769c0.207,-0.1086 0.572,-0.4018 0.565,-0.6049c-0.046,-1.1566 -2.013,-1.0206 -2.595,-2.232c-0.153,-0.3214 -0.167,-0.6926 -0.037,-1.0244c0.206,-0.5238 0.63,-0.7069 1.108,-0.9059z" fill="white"/>
<path id="Vector_19" d="M15.7842,44.0775c0.7016,0.0008 3.5987,-0.1835 3.9487,0.248c0.0035,0.2615 0.0528,0.1688 -0.078,0.326c-0.4484,0.0618 -1.0704,0.0418 -1.5367,0.041v3.059c0.0026,0.428 0.029,1.2094 -0.0306,1.6007c-0.1955,0.0738 -0.4798,0.0827 -0.6412,-0.0625c-0.1098,-0.8271 -0.0356,-3.6276 -0.0318,-4.5972c-0.516,-0.0105 -1.0157,0.1124 -1.4632,-0.0479c-0.2066,-0.2001 -0.1381,-0.1804 -0.1672,-0.5671z" fill="white"/>
<path id="Vector_20" d="M63.435,14.6824c1.285,-0.1205 4.262,0.2025 5.069,1.318l-0.055,0.2063c-0.254,0.1862 -0.354,0.18 -0.674,0.2415c-0.472,0.0996 -1.098,0.3403 -1.596,0.4871l-0.078,-0.0568c0.216,-1.551 -1.538,-1.7993 -2.666,-2.1961z" fill="white"/>
</g>
<g id="Plus 2_6">
<path id="stroke_14" d="M227,17l-5,5l5,5" stroke="white" stroke-width="1.5" stroke-linecap="round" stroke-linejoin="round"/>
<path id="stroke_15" d="M222,17l-5,5l5,5" stroke="white" stroke-width="1.5" stroke-linecap="round" stroke-linejoin="round"/>
</g>
</g></svg>