<svg viewBox="0 0 48 48" fill="none" xmlns="http://www.w3.org/2000/svg" xmlns:xlink="http://www.w3.org/1999/xlink" x="0" y="0"><g id="Notification">
<rect x="0.5" y="0.5" width="47" height="47" rx="23.5" stroke="#E5E5E4"/>
<g id="Stroke Icons_6">
<path id="shape_5" fill-rule="evenodd" clip-rule="evenodd" d="M20.32,15c-1.79,0 -3.45,0.9614 -4.34,2.5193l-2.32,4.0623c-0.43,0.7555 -0.66,1.6105 -0.66,2.4807v3.9377c0,2.7614 2.24,5 5,5h12c2.76,0 5,-2.2386 5,-5v-3.9377c0,-0.8702 -0.23,-1.7252 -0.66,-2.4807l-2.32,-4.0623c-0.89,-1.5579 -2.55,-2.5193 -4.34,-2.5193zM17.72,18.5116c0.53,-0.9347 1.52,-1.5116 2.6,-1.5116h7.36c1.08,0 2.07,0.5769 2.6,1.5116l2,3.4884h-4.28c-1.1,0 -2,0.8954 -2,2c0,0.5523 -0.45,1 -1,1h-2c-0.55,0 -1,-0.4477 -1,-1c0,-1.1046 -0.9,-2 -2,-2h-4.28zM15,24c0,0.0207 0,0.0415 0,0.0623v3.9377c0,1.6569 1.34,3 3,3h12c1.66,0 3,-1.3431 3,-3v-3.9377c0,-0.0208 0,-0.0416 0,-0.0623h-5c0,1.6569 -1.34,3 -3,3h-2c-1.66,0 -3,-1.3431 -3,-3z" fill="#3D3936"/>
</g>
<circle id="Ellipse 327" cx="30" cy="16" r="3.5" fill="#FF5100" stroke="white"/>
</g></svg>