<svg viewBox="0 0 16.6667 16.6667" fill="none" xmlns="http://www.w3.org/2000/svg" xmlns:xlink="http://www.w3.org/1999/xlink" x="0" y="0"><path id="Vector_2" d="M14.1667,8.3333h-5.8333v-5.833c0,-0.5 -0.3334,-0.834 -0.8334,-0.834c-4.1666,0 -7.5,3.334 -7.5,7.5c0,4.167 3.3334,7.5 7.5,7.5c4.1667,0 7.5,-3.333 7.5,-7.5c0,-0.5 -0.3333,-0.833 -0.8333,-0.833zM8.3334,14.9163c-3.1667,0.5 -6.1667,-1.75 -6.5834,-4.916c-0.5,-3.167 1.75,-6.167 4.9167,-6.584v5.75c0,0.5 0.3333,0.834 0.8333,0.834h5.75c-0.3333,2.583 -2.3333,4.583 -4.9166,4.916zM10.8334,0.0003c-0.5,0 -0.8334,0.333 -0.8334,0.833v5c0,0.5 0.3334,0.833 0.8334,0.833h5c0.5,0 0.8333,-0.333 0.8333,-0.833c0,-3.25 -2.5833,-5.833 -5.8333,-5.833zM11.6667,5.0003v-3.25c1.6667,0.333 2.9167,1.583 3.25,3.25z" fill="currentColor"/></svg>