<svg viewBox="0 0 20 20" fill="none" xmlns="http://www.w3.org/2000/svg" xmlns:xlink="http://www.w3.org/1999/xlink" x="0" y="0"><g id="Stroke Icons_5">
<path id="stroke_12" d="M10,12.5c1.3807,0 2.5,-1.119 2.5,-2.5c0,-1.381 -1.1193,-2.5 -2.5,-2.5c-1.3807,0 -2.5,1.119 -2.5,2.5c0,1.381 1.1193,2.5 2.5,2.5z" stroke="white" stroke-width="1.5" stroke-linecap="round" stroke-linejoin="round"/>
<path id="stroke_13" d="M3.3333,6.23c-0.7384,1.27 -0.4961,6.687 0,7.54c0.8334,1.434 5.0001,3.73 6.6667,3.73c1.6666,0 5.9518,-2.5 6.6667,-3.73c0.7148,-1.229 0.7148,-6.311 0,-7.54c-0.7148,-1.23 -5,-3.73 -6.6667,-3.73c-1.6667,0 -5.9282,2.459 -6.6667,3.73z" stroke="white" stroke-width="1.5" stroke-linecap="round" stroke-linejoin="round"/>
</g></svg>