<svg viewBox="0 0 20 20" fill="none" xmlns="http://www.w3.org/2000/svg" xmlns:xlink="http://www.w3.org/1999/xlink" x="0" y="0"><g id="Stroke Icons_3">
<path id="stroke_4" d="M15,14.931c0,1.062 -2.5,1.736 -5,1.736c-2.9167,0 -5,-0.674 -5,-1.736c0,-1.55 2.5,-2.431 5,-2.431c2.5,0 5,1.042 5,2.431z" stroke="white" stroke-width="1.5" stroke-linecap="round" stroke-linejoin="round"/>
<path id="stroke_5" d="M10.0001,10c1.8409,0 3.3333,-1.492 3.3333,-3.333c0,-1.841 -1.4924,-3.334 -3.3333,-3.334c-1.841,0 -3.3334,1.493 -3.3334,3.334c0,1.841 1.4924,3.333 3.3334,3.333z" stroke="white" stroke-width="1.5" stroke-linecap="round" stroke-linejoin="round"/>
<path id="stroke_6" d="M17.0833,14.445c0.8708,-0.247 1.25,-0.656 1.25,-1.178c0,-1.008 -1.4491,-1.796 -3.3333,-1.977" stroke="white" stroke-width="1.5" stroke-linecap="round" stroke-linejoin="round"/>
<path id="stroke_7" d="M15,9.167c1.1506,0 2.0833,-0.933 2.0833,-2.084c0,-1.15 -0.9327,-2.083 -2.0833,-2.083" stroke="white" stroke-width="1.5" stroke-linecap="round" stroke-linejoin="round"/>
<path id="stroke_8" d="M2.9167,14.445c-0.8708,-0.247 -1.25,-0.656 -1.25,-1.178c0,-1.008 1.4491,-1.796 3.3333,-1.977" stroke="white" stroke-width="1.5" stroke-linecap="round" stroke-linejoin="round"/>
<path id="stroke_9" d="M5,9.167c-1.1506,0 -2.0833,-0.933 -2.0833,-2.084c0,-1.15 0.9327,-2.083 2.0833,-2.083" stroke="white" stroke-width="1.5" stroke-linecap="round" stroke-linejoin="round"/>
</g></svg>