<svg viewBox="0 0 136 48" fill="none" xmlns="http://www.w3.org/2000/svg" xmlns:xlink="http://www.w3.org/1999/xlink" x="0" y="0"><g id="Component 5">
<rect x="0.5" y="0.5" width="135" height="47" rx="13.5" stroke="#E5E5E4"/>
<g id="Component 9">
<rect x="4" y="4" width="40" height="40" rx="12" fill="#3D3936"/>
<g id="Stroke Icons_11">
<g id="vuesax/linear/element-3">
<g id="element-3">
<path id="Vector_24" d="M34,20.52v-4.54c0,-1.41 -0.64,-1.98 -2.23,-1.98h-4.04c-1.59,0 -2.23,0.57 -2.23,1.98v4.53c0,1.42 0.64,1.98 2.23,1.98h4.04c1.59,0.01 2.23,-0.56 2.23,-1.97z" stroke="white" stroke-width="1.5" stroke-linecap="round" stroke-linejoin="round"/>
<path id="Vector_25" d="M34,31.77v-4.04c0,-1.59 -0.64,-2.23 -2.23,-2.23h-4.04c-1.59,0 -2.23,0.64 -2.23,2.23v4.04c0,1.59 0.64,2.23 2.23,2.23h4.04c1.59,0 2.23,-0.64 2.23,-2.23z" stroke="white" stroke-width="1.5" stroke-linecap="round" stroke-linejoin="round"/>
<path id="Vector_26" d="M22.5,20.52v-4.54c0,-1.41 -0.64,-1.98 -2.23,-1.98h-4.04c-1.59,0 -2.23,0.57 -2.23,1.98v4.53c0,1.42 0.64,1.98 2.23,1.98h4.04c1.59,0.01 2.23,-0.56 2.23,-1.97z" stroke="white" stroke-width="1.5" stroke-linecap="round" stroke-linejoin="round"/>
<path id="Vector_27" d="M22.5,31.77v-4.04c0,-1.59 -0.64,-2.23 -2.23,-2.23h-4.04c-1.59,0 -2.23,0.64 -2.23,2.23v4.04c0,1.59 0.64,2.23 2.23,2.23h4.04c1.59,0 2.23,-0.64 2.23,-2.23z" stroke="white" stroke-width="1.5" stroke-linecap="round" stroke-linejoin="round"/>
</g>
</g>
</g>
</g>
<g id="List View">
<g id="Plus 2_8">
<g id="Group">
<path id="Vector_28" d="M62,23.25h12c0.6,0 1.17,-0.237 1.59,-0.659c0.42,-0.422 0.66,-0.994 0.66,-1.591v-3c0,-0.597 -0.24,-1.169 -0.66,-1.591c-0.42,-0.422 -0.99,-0.659 -1.59,-0.659h-12c-0.6,0 -1.17,0.237 -1.59,0.659c-0.42,0.422 -0.66,0.994 -0.66,1.591v3c0,0.597 0.24,1.169 0.66,1.591c0.42,0.422 0.99,0.659 1.59,0.659zM61.25,18c0,-0.199 0.08,-0.39 0.22,-0.53c0.14,-0.141 0.33,-0.22 0.53,-0.22h12c0.2,0 0.39,0.079 0.53,0.22c0.14,0.14 0.22,0.331 0.22,0.53v3c0,0.199 -0.08,0.39 -0.22,0.53c-0.14,0.141 -0.33,0.22 -0.53,0.22h-12c-0.2,0 -0.39,-0.079 -0.53,-0.22c-0.14,-0.14 -0.22,-0.331 -0.22,-0.53zM62,32.25h12c0.6,0 1.17,-0.237 1.59,-0.659c0.42,-0.422 0.66,-0.994 0.66,-1.591v-3c0,-0.597 -0.24,-1.169 -0.66,-1.591c-0.42,-0.422 -0.99,-0.659 -1.59,-0.659h-12c-0.6,0 -1.17,0.237 -1.59,0.659c-0.42,0.422 -0.66,0.994 -0.66,1.591v3c0,0.597 0.24,1.169 0.66,1.591c0.42,0.422 0.99,0.659 1.59,0.659zM61.25,27c0,-0.199 0.08,-0.39 0.22,-0.53c0.14,-0.141 0.33,-0.22 0.53,-0.22h12c0.2,0 0.39,0.079 0.53,0.22c0.14,0.14 0.22,0.331 0.22,0.53v3c0,0.199 -0.08,0.39 -0.22,0.53c-0.14,0.141 -0.33,0.22 -0.53,0.22h-12c-0.2,0 -0.39,-0.079 -0.53,-0.22c-0.14,-0.14 -0.22,-0.331 -0.22,-0.53z" fill="#3D3936"/>
</g>
</g>
</g>
<g id="Org Chart View">
<g id="Stroke Icons_12">
<path id="shape_6" d="M112,19c1.1,0 2,-0.895 2,-2c0,-1.105 -0.9,-2 -2,-2c-1.1,0 -2,0.895 -2,2c0,1.105 0.9,2 2,2z" stroke="#3D3936" stroke-width="1.5" stroke-linecap="round" stroke-linejoin="round"/>
<path id="shape_7" d="M112,33c1.1,0 2,-0.895 2,-2c0,-1.105 -0.9,-2 -2,-2c-1.1,0 -2,0.895 -2,2c0,1.105 0.9,2 2,2z" stroke="#3D3936" stroke-width="1.5" stroke-linecap="round" stroke-linejoin="round"/>
<path id="shape_8" d="M105,33c1.1,0 2,-0.895 2,-2c0,-1.105 -0.9,-2 -2,-2c-1.1,0 -2,0.895 -2,2c0,1.105 0.9,2 2,2z" stroke="#3D3936" stroke-width="1.5" stroke-linecap="round" stroke-linejoin="round"/>
<path id="shape_9" d="M119,33c1.1,0 2,-0.895 2,-2c0,-1.105 -0.9,-2 -2,-2c-1.1,0 -2,0.895 -2,2c0,1.105 0.9,2 2,2z" stroke="#3D3936" stroke-width="1.5" stroke-linecap="round" stroke-linejoin="round"/>
<path id="shape_10" d="M112,28v-8" stroke="#3D3936" stroke-width="1.5" stroke-linecap="round" stroke-linejoin="round"/>
<path id="shape_11" d="M105,29v-2c0,-2.209 1.79,-4 4,-4h6c2.21,0 4,1.791 4,4v2" stroke="#3D3936" stroke-width="1.5" stroke-linecap="round" stroke-linejoin="round"/>
</g>
</g>
</g></svg>